<svg xmlns="http://www.w3.org/2000/svg" width="24" height="24" style="display:inline-block; margin-top:-4px;" viewBox="0 0 16 16" shape-rendering="geometricPrecision">
  <g transform="translate(-0.000000 -0.000000) scale(0.100000 0.100000)">
  <style>
    svg {
      overflow: visible;
    }

    .stage {
      transform-box: view-box;
      transform-origin: center;
      animation: stagePulse 3s cubic-bezier(.22,1,.36,1) infinite;
    }

    .frag {
      transform-box: fill-box;
      transform-origin: center;
      animation: heavyBlast 3s cubic-bezier(.16,1,.3,1) infinite;
      animation-delay: var(--d);
      will-change: transform, opacity, filter;
    }

    .particle {
      fill: currentColor;
      color: #000;
      opacity: 0;
      transform-box: view-box;
      transform-origin: center;
      animation: particleBlast 3s cubic-bezier(.16,1,.3,1) infinite;
      animation-delay: var(--d);
    }

    .flash {
      fill: none;
      stroke: currentColor;
      color: #000;
      stroke-width: .65;
      opacity: 0;
      transform-box: view-box;
      transform-origin: center;
      animation: flashRing 3s cubic-bezier(.16,1,.3,1) infinite;
    }

    @keyframes stagePulse {
      0%, 16% { transform: scale(1); }
      20% { transform: scale(.94); }
      25% { transform: scale(1.06); }
      100% { transform: scale(1); }
    }

    @keyframes heavyBlast {
      0%, 16% {
        opacity: 1;
        filter: blur(0);
        transform: translate(0,0) rotate(0deg) scale(1);
      }
      22% {
        opacity: 1;
        filter: blur(0);
        transform: translate(calc(var(--x) * .18), calc(var(--y) * .18)) rotate(calc(var(--r) * .25)) scale(1.08);
      }
      42% {
        opacity: .82;
        filter: blur(.15px);
        transform: translate(var(--x), var(--y)) rotate(var(--r)) scale(.72);
      }
      58% {
        opacity: 0;
        filter: blur(.45px);
        transform: translate(calc(var(--x) * 1.22), calc(var(--y) * 1.22)) rotate(calc(var(--r) * 1.35)) scale(.5);
      }
      72% {
        opacity: 0;
        filter: blur(.2px);
        transform: translate(calc(var(--x) * -.25), calc(var(--y) * -.25)) rotate(calc(var(--r) * -.25)) scale(.82);
      }
      88%, 100% {
        opacity: 1;
        filter: blur(0);
        transform: translate(0,0) rotate(0deg) scale(1);
      }
    }

    @keyframes particleBlast {
      0%, 18% {
        opacity: 0;
        transform: translate(0,0) scale(.2);
      }
      26% {
        opacity: 1;
        transform: translate(calc(var(--x) * .45), calc(var(--y) * .45)) scale(1.1);
      }
      52% {
        opacity: .75;
        transform: translate(var(--x), var(--y)) scale(.75);
      }
      66%, 100% {
        opacity: 0;
        transform: translate(calc(var(--x) * 1.25), calc(var(--y) * 1.25)) scale(.15);
      }
    }

    @keyframes flashRing {
      0%, 18% {
        opacity: 0;
        transform: scale(.15);
      }
      24% {
        opacity: .55;
        transform: scale(1);
      }
      42%, 100% {
        opacity: 0;
        transform: scale(2.6);
      }
    }

    @media (prefers-reduced-motion: reduce) {
      .stage, .frag, .particle, .flash {
        animation: none;
        opacity: 1;
        transform: none;
        filter: none;
      }
      .particle, .flash { display: none; }
    }
  </style>

  <g class="stage">
    <path d="M53 8C57.0813 9.61693 59.806 12.5428 62.8125 15.625C63.3502 16.1691 63.8879 16.7133 64.4419 17.2739C67.7472 20.6431 70.8791 24.1129 73.9336 27.7109C79.0415 33.3692 84.5776 38.6453 90 44C93.0429 33.3918 95.8578 22.8327 98 12C98.99 12 99.98 12 101 12C102.003 16.0554 103 20.1122 103.991 24.1704C104.329 25.55 104.668 26.9293 105.009 28.3081C105.5 30.2929 105.985 32.2791 106.469 34.2656C106.762 35.4596 107.055 36.6536 107.357 37.8838C108 41 108 41 108 45C114.957 39.6044 121.264 33.8886 127.418 27.6111C130.246 24.7321 133.084 21.9625 136.188 19.375C139.119 17.1228 139.119 17.1228 141 14C141.66 14 142.32 14 143 14C142.397 17.3582 141.569 20.4312 140.358 23.6191C140.024 24.5036 139.69 25.388 139.346 26.2992C138.805 27.7134 138.805 27.7134 138.254 29.1562C137.883 30.1361 137.512 31.116 137.129 32.1256C135.944 35.2518 134.753 38.3759 133.562 41.5C132.765 43.6027 131.967 45.7056 131.17 47.8086C129.706 51.6668 128.241 55.5247 126.772 59.3809C126.477 60.1541 126.183 60.9273 125.879 61.724C124.939 64.1575 123.973 66.5797 123 69C127.27 70.6469 131.541 72.2924 135.812 73.9375C137.027 74.4061 138.242 74.8746 139.494 75.3574C140.658 75.8054 141.821 76.2533 143.02 76.7148C144.093 77.1286 145.167 77.5423 146.273 77.9685C148.167 78.6851 150.078 79.3594 152 80C152 80.99 152 81.98 152 83C148.355 83.9611 144.709 84.9184 141.062 85.875C140.041 86.1444 139.019 86.4138 137.967 86.6914C132 88.2545 126.03 89.7046 120 91C135.252 120.373 135.252 120.373 151.852 148.988C153 151 153 151 153 153C150 153 150 153 147.875 151.062C146.914 150.044 145.956 149.023 145 148C140.295 143.187 135.539 138.525 130.43 134.145C127.055 131.166 123.782 128.08 120.5 125C115.415 120.234 110.305 115.522 105 111C104.33 110.424 103.659 109.848 102.969 109.254C101.315 107.833 99.6579 106.416 98 105C93.1203 112.049 88.8092 119.369 84.5625 126.812C82.67 130.115 80.7767 133.417 78.8794 136.717C77.5885 138.972 76.3083 141.231 75.0386 143.498C74.4161 144.595 73.7937 145.693 73.1523 146.824C72.315 148.316 72.315 148.316 71.4607 149.839C70.9787 150.552 70.4966 151.265 70 152C69.34 152 68.68 152 68 152C67.9749 150.966 67.9499 149.932 67.9241 148.866C67.8297 145.018 67.7295 141.169 67.6277 137.321C67.5845 135.658 67.5428 133.994 67.5027 132.331C67.4447 129.935 67.3811 127.54 67.3164 125.145C67.2997 124.405 67.283 123.665 67.2658 122.903C67.1589 119.15 66.7885 115.664 66 112C65.118 112.203 65.118 112.203 64.2181 112.411C58.0865 113.824 51.9543 115.235 45.8218 116.645C43.5345 117.171 41.2474 117.698 38.9604 118.225C35.6693 118.984 32.3777 119.74 29.0859 120.496C28.067 120.732 27.048 120.967 25.9981 121.21C21.3469 122.276 16.7234 123.297 12 124C13.3707 119.888 16.1256 118.844 19.6875 116.75C26.8897 112.393 33.8719 107.762 40.8125 103C41.7731 102.341 42.7337 101.682 43.7234 101.003C45.4477 99.8183 47.1713 98.6326 48.8938 97.4453C50.5868 96.2835 52.2916 95.139 54 94C43.11 93.34 32.22 92.68 21 92C21.33 91.01 21.66 90.02 22 89C24.6521 87.7573 24.6521 87.7573 28.1523 86.5547C28.7677 86.3393 29.383 86.124 30.017 85.9021C31.9868 85.2153 33.9618 84.5448 35.9375 83.875C37.9082 83.1945 39.8779 82.5107 41.8473 81.8264C43.6359 81.207 45.4271 80.5953 47.2185 79.9839C49.9115 79.0956 49.9115 79.0956 52 78C51.1948 77.5322 50.3896 77.0643 49.5601 76.5823C46.4982 74.8011 43.438 73.0171 40.3789 71.2312C39.0687 70.4671 37.7578 69.704 36.4463 68.9421C29.2428 64.7567 22.0856 60.5043 15.0391 56.0586C14.4308 55.6812 13.8226 55.3039 13.1959 54.9151C11.7608 53.9981 10.3744 53.0057 9 52C9 51.34 9 50.68 9 50C20.0425 51.1403 30.9535 52.7487 41.8867 54.6787C42.8677 54.8492 43.8487 55.0197 44.8594 55.1953C45.7305 55.3502 46.6015 55.505 47.499 55.6646C50.0309 56.0041 52.4488 56.0589 55 56C54.2897 55.108 53.5795 54.2159 52.8477 53.2969C51.9189 52.1149 50.9906 50.9325 50.0625 49.75C49.5939 49.1635 49.1254 48.577 48.6426 47.9727C46.3265 45.0067 44.7325 42.6872 44 39C48.9576 40.5483 53.6381 42.5178 58.375 44.625C59.1111 44.9498 59.8471 45.2747 60.6055 45.6094C62.4047 46.4038 64.2025 47.2016 66 48C65.6417 46.9659 65.2834 45.9319 64.9143 44.8665C63.5823 41.0191 62.2545 37.1703 60.928 33.321C60.3539 31.6572 59.7788 29.9938 59.2024 28.3308C58.3728 25.9364 57.5473 23.5406 56.7227 21.1445C56.4653 20.4048 56.208 19.665 55.9429 18.9028C54.7052 15.2936 53.6242 11.7678 53 8Z" fill="#EE4D36" class="frag f0" style="--tx:-11.21px;--ty:-38.88px;--rot:81.00deg;--scale:0.87;--delay:-0.000s;--x:-28px;--y:-22px;--r:-22deg;--d:0.0s"/><path d="M73 40C78.5511 44.5183 83.5535 49.4841 88.5554 54.5925C91.4837 57.6782 91.4837 57.6782 95 60C95.1818 58.8959 95.1818 58.8959 95.3672 57.7695C95.5348 56.7937 95.7023 55.8179 95.875 54.8125C96.0374 53.8496 96.1998 52.8866 96.3672 51.8945C96.9804 49.0897 97.8567 46.6278 99 44C100.856 46.7847 101.452 48.2681 102.125 51.4375C102.376 52.5803 102.376 52.5803 102.633 53.7461C103 56 103 56 103 60C107.79 57.4633 111.419 54.0139 115.312 50.3125C115.958 49.706 116.603 49.0995 117.268 48.4746C118.849 46.9871 120.425 45.4941 122 44C123 46 123 46 122.434 48.0742C122.105 48.9366 121.776 49.799 121.438 50.6875C121.07 51.6595 120.703 52.6314 120.324 53.6328C119.358 56.0905 118.382 58.5431 117.395 60.9922C116.987 62.0041 116.987 62.0041 116.571 63.0364C116.028 64.3752 115.482 65.7123 114.931 67.0476C113.482 70.4137 113.482 70.4137 113 74C117.95 75.98 122.9 77.96 128 80C128 80.66 128 81.32 128 82C125.917 82.3371 123.834 82.6695 121.75 83C120.59 83.1856 119.43 83.3713 118.234 83.5625C115 84 115 84 111 84C111 83.34 111 82.68 111 82C108.69 82 106.38 82 104 82C104.589 83.1318 105.178 84.2636 105.785 85.4297C106.545 86.9112 107.304 88.393 108.062 89.875C108.452 90.6214 108.842 91.3677 109.244 92.1367C109.608 92.8521 109.972 93.5676 110.348 94.3047C110.688 94.9645 111.028 95.6244 111.379 96.3042C111.584 96.8638 111.789 97.4234 112 98C111.505 98.99 111.505 98.99 111 100C107.04 96.04 103.08 92.08 99 88C95.0313 89.3229 94.7009 90.9115 92.8125 94.5625C92.2827 95.5744 91.7529 96.5863 91.207 97.6289C90.8087 98.4114 90.4104 99.1938 90 100C89.34 100 88.68 100 88 100C88 96.37 88 92.74 88 89C83.71 89.99 79.42 90.98 75 92C78.1262 88.6058 80.5654 86.3937 85 85C85 84.34 85 83.68 85 83C82.03 83 79.06 83 76 83C78.5655 80.4345 80.4769 80.4595 84 80C84 79.34 84 78.68 84 78C80.3492 76.3894 76.9493 75.5511 73 75C72.67 75.66 72.34 76.32 72 77C66.8296 76.4931 63.1372 73.8655 58.875 71.125C57.8019 70.454 57.8019 70.454 56.707 69.7695C53.475 67.7216 50.6408 65.7926 48 63C56.6898 64.2083 65.3537 65.5114 74 67C72.02 64.36 70.04 61.72 68 59C68.33 58.34 68.66 57.68 69 57C72.63 58.65 76.26 60.3 80 62C77.4137 53.86 77.4137 53.86 74.25 45.9375C73 43 73 43 73 40Z" fill="#F9DF89" class="frag f1" style="--tx:39.56px;--ty:-11.97px;--rot:-128.69deg;--scale:0.84;--delay:-0.035s;--x:26px;--y:-24px;--r:20deg;--d:0.035s"/><path d="M73 74C77.3552 74.5064 80.4424 75.3841 84 78C84 78.66 84 79.32 84 80C82.02 80.66 80.04 81.32 78 82C80.31 82.33 82.62 82.66 85 83C85 83.66 85 84.32 85 85C82.1256 87.2014 79.0538 89.049 76 91C79.96 90.34 83.92 89.68 88 89C88 92.63 88 96.26 88 100C88.66 100 89.32 100 90 100C90.1018 99.438 90.2037 98.8759 90.3086 98.2969C91.1365 95.5466 92.432 93.609 94.0625 91.25C94.6104 90.4508 95.1582 89.6516 95.7227 88.8281C96.1442 88.2248 96.5657 87.6216 97 87C100.903 88.5867 103.335 91.1335 106.25 94.125C107.142 95.0351 108.034 95.9452 108.953 96.8828C109.629 97.5815 110.304 98.2802 111 99C110.495 97.9404 109.989 96.8808 109.469 95.7891C108.812 94.4011 108.156 93.0131 107.5 91.625C107.166 90.9263 106.832 90.2277 106.488 89.5078C104 84.2266 104 84.2266 104 82C106.31 82 108.62 82 111 82C111 82.66 111 83.32 111 84C114.3 83.67 117.6 83.34 121 83C117.812 85.1251 115.735 85.502 112 86C113.395 90.5332 115.196 94.7569 117.195 99.0469C118 101 118 101 118 103C118.66 103 119.32 103 120 103C121.364 105.62 122.716 108.246 124.062 110.875C124.452 111.621 124.842 112.368 125.244 113.137C125.608 113.852 125.972 114.568 126.348 115.305C126.688 115.965 127.028 116.624 127.379 117.304C127.584 117.864 127.789 118.423 128 119C127.505 119.99 127.505 119.99 127 121C126.371 120.359 125.742 119.719 125.094 119.059C120.556 114.473 115.993 110.001 111.094 105.805C106.999 102.275 103.011 98.6244 99 95C95.0753 96.3082 94.6883 97.7883 92.6797 101.348C92.0622 102.427 91.4448 103.507 90.8086 104.619C89.8515 106.324 89.8515 106.324 88.875 108.062C87.6047 110.305 86.3314 112.546 85.0547 114.785C84.4925 115.784 83.9303 116.783 83.3511 117.813C82.9052 118.535 82.4594 119.256 82 120C81.67 120 81.34 120 81 120C81 112.74 81 105.48 81 98C79.0857 98.4447 77.1715 98.8895 75.1992 99.3477C72.6954 99.9197 70.1915 100.491 67.6875 101.062C66.4249 101.357 65.1622 101.652 63.8613 101.955C62.6528 102.229 61.4443 102.503 60.1992 102.785C59.0838 103.042 57.9683 103.298 56.8191 103.563C54 104 54 104 51 103C54.4534 100.659 57.9135 98.3287 61.375 96C62.3598 95.3323 63.3447 94.6645 64.3594 93.9766C65.7709 93.0291 65.7709 93.0291 67.2109 92.0625C68.0802 91.476 68.9496 90.8895 69.8452 90.2852C72 89 72 89 74 89C74 88.34 74 87.68 74 87C68.06 86.67 62.12 86.34 56 86C56.33 85.34 56.66 84.68 57 84C59.9771 83.0473 62.9555 82.2632 65.9844 81.5C67.6714 81.0538 69.338 80.5318 71 80C71.33 79.34 71.66 78.68 72 78C71.34 77.67 70.68 77.34 70 77C70.66 77 71.32 77 72 77C72.33 76.01 72.66 75.02 73 74Z" fill="#FABC24" class="frag f2" style="--tx:36.29px;--ty:23.97px;--rot:124.75deg;--scale:0.93;--delay:-0.070s;--x:-34px;--y:2px;--r:-35deg;--d:0.07s"/><path d="M42 83.9999C40.6047 84.6261 39.2087 85.2508 37.8125 85.8749C37.0352 86.223 36.2579 86.571 35.457 86.9296C32.9898 88.0043 30.5005 89.0055 28 89.9999C28.7259 89.9894 29.4518 89.979 30.1997 89.9682C33.5081 89.9264 36.8164 89.9005 40.125 89.8749C41.8382 89.8498 41.8382 89.8498 43.5859 89.8241C45.2488 89.8145 45.2488 89.8145 46.9453 89.8046C47.9613 89.7941 48.9772 89.7836 50.0239 89.7729C53.2829 90.0215 55.9512 90.8511 59 91.9999C57.5508 95.6903 55.8683 96.9743 52.4375 98.8749C47.4697 101.714 42.7347 104.792 38 108C36.4531 109.021 36.4531 109.021 34.875 110.062C31.5357 112.313 28.2678 114.647 25 117C28.0272 117.09 28.0272 117.09 31.0625 116.437C34 116 34 116 36 117C36 116.34 36 115.68 36 115C36.6149 114.939 37.2298 114.879 37.8633 114.816C38.6715 114.733 39.4798 114.649 40.3125 114.562C41.5133 114.441 41.5133 114.441 42.7383 114.316C45.1609 114.047 45.1609 114.047 48 113C48.66 113.33 49.32 113.66 50 114C50 113.34 50 112.68 50 112C52.97 112 55.94 112 59 112C59 111.34 59 110.68 59 110C62.3 109.67 65.6 109.34 69 109C70.3847 111.769 70.0569 113.965 70 117.062C69.9307 125.405 70.4359 133.679 71 142C71.99 142 72.98 142 74 142C74.4145 140.906 74.4145 140.906 74.8374 139.79C75.9314 137.165 77.1668 134.808 78.6016 132.355C79.0914 131.514 79.5813 130.673 80.0859 129.807C80.5938 128.942 81.1017 128.078 81.625 127.187C82.1406 126.304 82.6562 125.42 83.1875 124.51C84.4553 122.338 85.7262 120.168 87 118C86.67 117.67 86.34 117.34 86 117C84.35 118.98 82.7 120.96 81 123C79 121 79 121 78.7729 119.029C78.7834 118.243 78.7939 117.458 78.8047 116.648C78.8111 115.798 78.8176 114.947 78.8242 114.07C78.8494 112.736 78.8494 112.736 78.875 111.375C78.884 110.478 78.893 109.581 78.9023 108.656C78.926 106.437 78.9589 104.219 79 102C79.33 102 79.66 102 80 102C80.495 109.425 80.495 109.425 81 117C81.66 117 82.32 117 83 117C83.3426 116.374 83.6851 115.749 84.0381 115.104C85.5974 112.271 87.1734 109.448 88.75 106.625C89.2888 105.64 89.8277 104.655 90.3828 103.641C91.1756 102.229 91.1756 102.229 91.9844 100.789C92.4662 99.9197 92.9479 99.0503 93.4443 98.1547C95.1191 95.8349 96.3624 95.0201 99 93.9999C99.99 95.4849 99.99 95.4849 101 96.9999C100.402 97.0618 99.8037 97.1237 99.1875 97.1874C96.1286 98.3236 95.4496 100.173 94 103C94.99 103 95.98 103 97 103C97.33 102.34 97.66 101.68 98 101C99.2955 102.1 100.586 103.205 101.875 104.312C102.954 105.235 102.954 105.235 104.055 106.176C106 108 106 108 108 111C108.743 111.412 109.485 111.825 110.25 112.25C113.349 114.222 115.151 116.399 117.375 119.281C118.959 121.125 118.959 121.125 121.293 122.301C124.925 124.581 127.474 127.504 130.312 130.687C130.862 131.294 131.412 131.9 131.979 132.525C133.325 134.012 134.663 135.505 136 137C133 137 133 137 131.02 135.277C130.291 134.505 129.563 133.733 128.812 132.937C125.434 129.445 121.995 126.183 118.309 123.023C114.686 119.848 111.173 116.553 107.655 113.262C104.538 110.362 101.365 107.616 98 105C93.1203 112.049 88.8092 119.369 84.5625 126.812C82.67 130.115 80.7767 133.417 78.8794 136.717C77.5885 138.972 76.3083 141.231 75.0386 143.497C74.4161 144.595 73.7937 145.693 73.1523 146.824C72.315 148.316 72.315 148.316 71.4607 149.839C70.9787 150.552 70.4966 151.265 70 152C69.34 152 68.68 152 68 152C67.9749 150.966 67.9499 149.932 67.9241 148.866C67.8297 145.018 67.7295 141.169 67.6277 137.321C67.5845 135.658 67.5428 133.994 67.5027 132.331C67.4447 129.935 67.3811 127.54 67.3164 125.144C67.2997 124.405 67.283 123.665 67.2658 122.903C67.1589 119.15 66.7885 115.664 66 112C65.412 112.135 64.824 112.271 64.2181 112.411C58.0865 113.824 51.9543 115.235 45.8218 116.645C43.5345 117.171 41.2474 117.697 38.9604 118.225C35.6693 118.984 32.3777 119.74 29.0859 120.496C28.067 120.731 27.048 120.967 25.9981 121.209C21.3469 122.276 16.7234 123.297 12 124C13.3707 119.888 16.1256 118.844 19.6875 116.75C26.8897 112.393 33.8719 107.762 40.8125 103C41.7731 102.341 42.7337 101.682 43.7234 101.003C45.4477 99.8183 47.1713 98.6325 48.8938 97.4452C50.5868 96.2835 52.2916 95.1389 54 93.9999C43.11 93.3399 32.22 92.6799 21 91.9999C22 88.9999 22 88.9999 23.6265 88.0927C24.3143 87.8507 25.0022 87.6086 25.7109 87.3593C26.4612 87.0937 27.2114 86.8282 27.9844 86.5546C28.7733 86.289 29.5622 86.0235 30.375 85.7499C31.1562 85.4689 31.9373 85.1879 32.7422 84.8983C38.6083 82.8693 38.6083 82.8693 42 83.9999Z" fill="#C12319" class="frag f3" style="--tx:-2.62px;--ty:39.74px;--rot:-165.00deg;--scale:0.94;--delay:-0.105s;--x:34px;--y:4px;--r:32deg;--d:0.105s"/><path d="M85 60C85.4589 60.3983 85.9178 60.7966 86.3906 61.207C89.5227 63.9114 92.6388 66.5799 96 69C96.66 67.02 97.32 65.04 98 63C100 66 100 66 100 69C102.97 66.69 105.94 64.38 109 62C110 64 110 64 109.004 67.0391C108.29 68.8141 108.29 68.8141 107.562 70.625C107.089 71.8135 106.616 73.002 106.129 74.2266C105.756 75.1418 105.384 76.057 105 77C105.969 77.2887 106.939 77.5775 107.938 77.875C111 79 111 79 112 81C108.04 81.495 108.04 81.495 104 82C104.589 83.1318 105.178 84.2636 105.785 85.4297C106.545 86.9112 107.304 88.393 108.062 89.875C108.452 90.6214 108.842 91.3677 109.244 92.1367C109.608 92.8521 109.972 93.5676 110.348 94.3047C110.688 94.9645 111.028 95.6244 111.379 96.3042C111.584 96.8638 111.789 97.4234 112 98C111.505 98.99 111.505 98.99 111 100C107.04 96.04 103.08 92.08 99 88C95.0313 89.3229 94.7009 90.9115 92.8125 94.5625C92.2827 95.5744 91.7529 96.5863 91.207 97.6289C90.8087 98.4114 90.4104 99.1938 90 100C89.34 100 88.68 100 88 100C88 96.37 88 92.74 88 89C81.565 90.485 81.565 90.485 75 92C78.1262 88.6058 80.5654 86.3937 85 85C85 84.34 85 83.68 85 83C82.03 83 79.06 83 76 83C78.5655 80.4345 80.4769 80.4595 84 80C84 79.34 84 78.68 84 78C83.2987 77.7525 82.5975 77.505 81.875 77.25C78.63 75.8391 75.8968 74.021 73 72C75.8181 70.5909 77.1728 71.4913 80.125 72.4375C81.0351 72.725 81.9452 73.0124 82.8828 73.3086C83.5815 73.5368 84.2802 73.7649 85 74C84.2575 73.0719 84.2575 73.0719 83.5 72.125C82 70 82 70 82 68C86.75 69.875 86.75 69.875 89 71C88.7113 70.3735 88.4225 69.747 88.125 69.1016C87.7537 68.2843 87.3825 67.467 87 66.625C86.6287 65.8129 86.2575 65.0008 85.875 64.1641C85 62 85 62 85 60Z" fill="#FDFAE9" class="frag f4" style="--tx:43.75px;--ty:1.11px;--rot:194.38deg;--scale:0.82;--delay:-0.140s;--x:-22px;--y:26px;--r:24deg;--d:0.14s"/><path d="M97 94C98.32 94.66 99.64 95.32 101 96C100.103 96.3403 100.103 96.3403 99.1875 96.6875C96.4365 98.3381 95.4752 100.197 94 103C94.99 103 95.98 103 97 103C97.33 102.34 97.66 101.68 98 101C99.2955 102.1 100.586 103.205 101.875 104.312C102.594 104.927 103.314 105.542 104.055 106.176C106 108 106 108 108 111C108.743 111.412 109.485 111.825 110.25 112.25C113.349 114.222 115.151 116.4 117.375 119.281C118.959 121.125 118.959 121.125 121.293 122.301C124.925 124.581 127.474 127.504 130.312 130.688C130.862 131.294 131.412 131.901 131.979 132.525C133.325 134.012 134.663 135.505 136 137C133 137 133 137 131.02 135.277C130.291 134.505 129.563 133.733 128.812 132.938C125.434 129.446 121.995 126.183 118.309 123.023C114.686 119.848 111.173 116.553 107.655 113.262C104.538 110.362 101.365 107.616 98 105C93.0748 112.099 88.7633 119.49 84.5 127C74.2601 145.039 74.2601 145.039 71 149C70.34 149 69.68 149 69 149C69 141.08 69 133.16 69 125C69.33 125 69.66 125 70 125C70.33 130.61 70.66 136.22 71 142C71.99 142 72.98 142 74 142C74.2763 141.271 74.5527 140.542 74.8374 139.79C75.9314 137.165 77.1668 134.808 78.6016 132.355C79.0914 131.514 79.5813 130.673 80.0859 129.807C80.5938 128.942 81.1017 128.078 81.625 127.188C82.1406 126.304 82.6562 125.42 83.1875 124.51C84.4553 122.338 85.7262 120.168 87 118C86.67 117.67 86.34 117.34 86 117C84.35 118.98 82.7 120.96 81 123C79 121 79 121 78.7729 119.029C78.7834 118.243 78.7939 117.458 78.8047 116.648C78.8111 115.798 78.8176 114.947 78.8242 114.07C78.841 113.181 78.8577 112.291 78.875 111.375C78.884 110.478 78.893 109.581 78.9023 108.656C78.926 106.437 78.9589 104.219 79 102C79.33 102 79.66 102 80 102C80.33 106.95 80.66 111.9 81 117C81.66 117 82.32 117 83 117C83.353 116.374 83.7061 115.749 84.0698 115.104C85.6682 112.276 87.2715 109.45 88.875 106.625C89.4306 105.64 89.9862 104.655 90.5586 103.641C91.0936 102.7 91.6285 101.759 92.1797 100.789C92.9181 99.4851 92.9181 99.4851 93.6714 98.1548C95 96 95 96 97 94Z" fill="#E12519" class="frag f5" style="--tx:10.64px;--ty:53.09px;--rot:-198.61deg;--scale:0.85;--delay:-0.175s;--x:24px;--y:26px;--r:-24deg;--d:0.175s"/><path d="M117 51C118.132 55.5293 118.139 57.964 116.625 62.25C115.256 66.1508 114.143 69.9986 113 74C120.425 76.97 120.425 76.97 128 80C128 80.66 128 81.32 128 82C125.917 82.3371 123.834 82.6695 121.75 83C120.59 83.1856 119.43 83.3713 118.234 83.5625C115 84 115 84 111 84C111 83.34 111 82.68 111 82C110.01 81.67 109.02 81.34 108 81C108.99 80.67 109.98 80.34 111 80C109.02 79.01 107.04 78.02 105 77C105.535 71.6516 107.467 67.642 110 63C110.66 63 111.32 63 112 63C112 61.68 112 60.36 112 59C111.34 58.67 110.68 58.34 110 58C112.31 55.69 114.62 53.38 117 51Z" fill="#FAD25E" class="frag f6" style="--tx:55.78px;--ty:-18.55px;--rot:211.71deg;--scale:0.84;--delay:-0.210s;--x:0px;--y:-32px;--r:18deg;--d:0.21s"/><path d="M73 74C77.3552 74.5064 80.4424 75.3841 84 78C84 78.66 84 79.32 84 80C82.02 80.66 80.04 81.32 78 82C80.31 82.33 82.62 82.66 85 83C85 83.66 85 84.32 85 85C83.0664 86.4375 83.0664 86.4375 80.5625 88C77.1899 89.953 77.1899 89.953 75 93C74.34 93 73.68 93 73 93C72.67 91.68 72.34 90.36 72 89C72.66 89 73.32 89 74 89C74 88.34 74 87.68 74 87C68.06 86.67 62.12 86.34 56 86C56.33 85.34 56.66 84.68 57 84C59.9771 83.0473 62.9555 82.2632 65.9844 81.5C67.6714 81.0538 69.338 80.5318 71 80C71.33 79.34 71.66 78.68 72 78C71.34 77.67 70.68 77.34 70 77C70.66 77 71.32 77 72 77C72.33 76.01 72.66 75.02 73 74Z" fill="#FACA4D" class="frag f7" style="--tx:-36.61px;--ty:14.43px;--rot:-263.29deg;--scale:0.98;--delay:-0.245s;--x:0px;--y:34px;--r:-18deg;--d:0.245s"/><path d="M69 109C70.6431 112.286 69.9975 115.907 69.8789 119.508C69.8435 120.769 69.8435 120.769 69.8074 122.055C69.7307 124.745 69.6467 127.435 69.5625 130.125C69.5093 131.947 69.4565 133.768 69.4043 135.59C69.275 140.06 69.1392 144.53 69 149C69.66 149 70.32 149 71 149C70.67 149.99 70.34 150.98 70 152C69.34 152 68.68 152 68 152C67.9749 150.966 67.9499 149.932 67.9241 148.867C67.8297 145.018 67.7295 141.17 67.6277 137.321C67.5845 135.658 67.5428 133.994 67.5027 132.331C67.4447 129.935 67.3811 127.54 67.3164 125.145C67.2997 124.405 67.283 123.665 67.2658 122.903C67.1589 119.15 66.7885 115.664 66 112C65.412 112.136 64.824 112.271 64.2181 112.411C58.0865 113.824 51.9543 115.235 45.8218 116.645C43.5345 117.171 41.2474 117.698 38.9604 118.225C35.6693 118.984 32.3777 119.74 29.0859 120.496C28.067 120.732 27.048 120.967 25.9981 121.21C21.3469 122.276 16.7234 123.297 12 124C14 121 14 121 16.75 120.34C17.8225 120.207 18.895 120.074 20 119.938C24.5091 119.55 24.5091 119.55 28 117C33.4857 115.743 33.4857 115.743 36 117C36 116.34 36 115.68 36 115C36.9223 114.909 36.9223 114.909 37.8633 114.817C38.6715 114.733 39.4798 114.649 40.3125 114.563C41.5133 114.441 41.5133 114.441 42.7383 114.317C45.1609 114.047 45.1609 114.047 48 113C48.66 113.33 49.32 113.66 50 114C50 113.34 50 112.68 50 112C52.97 112 55.94 112 59 112C59 111.34 59 110.68 59 110C62.4056 109.222 65.5077 108.9 69 109Z" fill="#A2211A" class="frag f8" style="--tx:-35.04px;--ty:23.23px;--rot:269.14deg;--scale:0.94;--delay:-0.280s;--x:-38px;--y:-10px;--r:40deg;--d:0.28s"/><path d="M57 66C59.6884 66.4536 62.3756 66.9127 65.0625 67.375C65.8147 67.5013 66.5668 67.6277 67.3418 67.7578C72.0058 68.5654 76.4725 69.6171 81 71C81.33 70.34 81.66 69.68 82 69C83.5 70.375 83.5 70.375 85 72C85 72.66 85 73.32 85 74C81.37 73.34 77.74 72.68 74 72C74.66 72.66 75.32 73.32 76 74C75.01 74.33 74.02 74.66 73 75C72.67 75.66 72.34 76.32 72 77C67.6514 76.4356 64.8217 74.8457 61.1875 72.4375C60.2117 71.7968 59.2359 71.1562 58.2305 70.4961C57.1264 69.7555 57.1264 69.7555 56 69C56.33 68.01 56.66 67.02 57 66Z" fill="#FAD96D" class="frag f9" style="--tx:-29.78px;--ty:-33.94px;--rot:-311.47deg;--scale:0.95;--delay:-0.315s;--x:38px;--y:-8px;--r:-40deg;--d:0.315s"/><path d="M111 86C112.65 86 114.3 86 116 86C115.01 87.485 115.01 87.485 114 89C114.444 89.8471 114.888 90.6942 115.345 91.5669C117.001 94.7291 118.651 97.8944 120.299 101.061C121.011 102.427 121.725 103.793 122.44 105.157C123.472 107.126 124.498 109.098 125.523 111.07C126 111.975 126 111.975 126.486 112.899C128.359 116.518 129.812 120.103 131 124C126.916 122.648 124.623 120.931 121.688 117.812C118.83 114.845 115.959 112.034 112.812 109.375C109.116 106.212 106.075 102.767 103 99C106.252 100.417 108.314 102.125 110.75 104.688C115.823 109.893 121.146 114.687 127 119C126.495 118.013 125.989 117.025 125.469 116.008C124.812 114.714 124.156 113.419 123.5 112.125C123.166 111.474 122.832 110.823 122.488 110.152C120 105.227 120 105.227 120 103C119.34 103 118.68 103 118 103C116.829 100.544 115.663 98.0853 114.5 95.625C114.166 94.9263 113.832 94.2277 113.488 93.5078C111 88.2266 111 88.2266 111 86Z" fill="#E8281B" class="frag f10" style="--tx:48.10px;--ty:10.59px;--rot:79.12deg;--scale:0.88;--delay:-0.350s;--x:-14px;--y:-34px;--r:30deg;--d:0.35s"/><path d="M97 101C100.404 102.702 102.624 104.589 105 107.5C106.816 109.724 108.006 111.003 110.5 112.5C113.524 114.314 115.237 116.512 117.375 119.281C118.959 121.125 118.959 121.125 121.293 122.301C124.925 124.581 127.474 127.504 130.312 130.688C130.862 131.294 131.412 131.901 131.979 132.525C133.325 134.012 134.663 135.505 136 137C133 137 133 137 131.02 135.277C130.291 134.505 129.563 133.733 128.812 132.938C125.433 129.444 121.992 126.181 118.305 123.02C114.714 119.873 111.232 116.61 107.743 113.35C107.217 112.861 106.691 112.371 106.148 111.867C105.632 111.387 105.117 110.907 104.585 110.413C102.973 108.976 101.3 107.652 99.6016 106.32C98.743 105.555 97.8845 104.789 97 104C97 103.01 97 102.02 97 101Z" fill="#B12219" class="frag f11" style="--tx:35.31px;--ty:24.62px;--rot:-97.04deg;--scale:0.88;--delay:-0.385s;--x:16px;--y:34px;--r:-30deg;--d:0.385s"/><path d="M89 116C89 121.536 85.0956 126.35 82.3838 131.079C81.2561 133.052 80.1472 135.034 79.0391 137.018C78.324 138.274 77.6079 139.53 76.8906 140.785C76.2413 141.929 75.5919 143.072 74.9229 144.25C73 147 73 147 69 149C69 141.08 69 133.16 69 125C69.33 125 69.66 125 70 125C70.33 130.61 70.66 136.22 71 142C71.99 142 72.98 142 74 142C74.2726 141.275 74.5451 140.549 74.8259 139.802C75.9633 137.088 77.2664 134.689 78.7852 132.172C79.3156 131.29 79.8461 130.408 80.3926 129.5C80.9437 128.592 81.4947 127.685 82.0625 126.75C82.6174 125.827 83.1724 124.904 83.7441 123.953C87.8526 117.147 87.8526 117.147 89 116Z" fill="#CC241A" class="frag f12" style="--tx:2.36px;--ty:51.80px;--rot:130.81deg;--scale:0.87;--delay:-0.420s;--x:-30px;--y:18px;--r:-50deg;--d:0.42s"/><path d="M141 77C144.63 77.99 148.26 78.98 152 80C152 80.99 152 81.98 152 83C151.356 83.166 150.711 83.3321 150.047 83.5032C147.073 84.2709 144.099 85.0417 141.125 85.8125C140.112 86.0735 139.099 86.3346 138.055 86.6035C131.658 88.2643 125.315 90.0489 119 92C119 91.34 119 90.68 119 90C119.639 89.8762 120.279 89.7525 120.938 89.625C121.618 89.4188 122.299 89.2125 123 89C123.33 88.34 123.66 87.68 124 87C124.66 87.33 125.32 87.66 126 88C126 87.34 126 86.68 126 86C130.75 84.875 130.75 84.875 133 86C133.33 85.34 133.66 84.68 134 84C135.926 83.3672 135.926 83.3672 138.312 82.875C139.092 82.7074 139.872 82.5398 140.676 82.3672C143 82 143 82 147 82C147 81.34 147 80.68 147 80C145.02 79.34 143.04 78.68 141 78C141 77.67 141 77.34 141 77Z" fill="#C12A1F" class="frag f13" style="--tx:48.79px;--ty:19.68px;--rot:-164.92deg;--scale:0.95;--delay:-0.455s;--x:32px;--y:16px;--r:50deg;--d:0.455s"/><path d="M141 14C141.66 14 142.32 14 143 14C142.453 17.3746 141.945 19.0824 140 22C138.071 23.0933 136.107 23.9542 134.07 24.8281C131.706 26.1663 130.455 27.5816 128.75 29.6875C125.187 33.9151 121.245 37.4717 117 41C117 38 117 38 118.266 36.3777C118.85 35.8032 119.434 35.2286 120.035 34.6367C120.68 33.9967 121.326 33.3567 121.99 32.6973C123.016 31.7024 123.016 31.7024 124.062 30.6875C124.719 30.0359 125.376 29.3843 126.053 28.7129C129.75 25.0734 133.532 21.6155 137.552 18.3352C139.26 16.8657 139.26 16.8657 141 14Z" fill="#DC6B48" class="frag f14" style="--tx:27.23px;--ty:-17.06px;--rot:168.54deg;--scale:0.90;--delay:-0.490s;--x:-10px;--y:0px;--r:18deg;--d:0.49s"/><path d="M45 100C45.66 100.33 46.32 100.66 47 101C45.4407 102.275 43.8774 103.545 42.3125 104.812C41.4424 105.52 40.5723 106.228 39.6758 106.957C37.1948 108.851 34.6912 110.427 32 112C30.7182 112.88 29.446 113.774 28.1875 114.688C27.1356 115.451 26.0838 116.214 25 117C25.33 117.99 25.66 118.98 26 120C22.04 120.66 18.08 121.32 14 122C17.3005 118.699 20.4443 116.194 24.2969 113.672C24.8905 113.278 25.4841 112.884 26.0958 112.478C27.9776 111.231 29.8637 109.991 31.75 108.75C33.0328 107.901 34.3154 107.053 35.5977 106.203C38.7286 104.131 41.8632 102.064 45 100Z" fill="#BE180F" class="frag f15" style="--tx:-39.68px;--ty:19.39px;--rot:-207.28deg;--scale:0.97;--delay:-0.525s;--x:10px;--y:0px;--r:-18deg;--d:0.525s"/><path d="M69 109C70.6431 112.286 69.9975 115.907 69.8789 119.508C69.8553 120.349 69.8317 121.189 69.8074 122.055C69.7307 124.745 69.6467 127.435 69.5625 130.125C69.5093 131.947 69.4565 133.768 69.4043 135.59C69.275 140.06 69.1392 144.53 69 149C69.66 149 70.32 149 71 149C70.67 149.99 70.34 150.98 70 152C69.34 152 68.68 152 68 152C67.9749 150.966 67.9499 149.932 67.9241 148.867C67.8297 145.018 67.7295 141.17 67.6277 137.321C67.5845 135.658 67.5428 133.994 67.5027 132.331C67.4447 129.935 67.3811 127.54 67.3164 125.145C67.2997 124.405 67.283 123.665 67.2658 122.903C67.1593 119.164 66.8781 115.641 66 112C63.69 112 61.38 112 59 112C59 111.34 59 110.68 59 110C62.4056 109.222 65.5077 108.9 69 109Z" fill="#B41F16" class="frag f16" style="--tx:-20.51px;--ty:41.39px;--rot:217.16deg;--scale:0.83;--delay:-0.010s;--x:-18px;--y:-16px;--r:26deg;--d:0.56s"/><path d="M69 87C70.65 87 72.3 87 74 87C74 87.66 74 88.32 74 89C71.4874 90.7129 68.9783 92.3112 66.375 93.875C64.9448 94.7466 63.5151 95.6189 62.0859 96.4922C61.396 96.9121 60.706 97.332 59.9951 97.7646C57.2831 99.4439 54.6397 101.21 52 103C53.65 103.33 55.3 103.66 57 104C53.5981 106.094 50.9473 106.179 47 106C50.8017 100.874 54.7541 97.9805 60.25 94.8125C61.6974 93.9729 63.1404 93.1255 64.5781 92.2695C65.528 91.722 65.528 91.722 66.4971 91.1633C68.3166 89.9779 68.3166 89.9779 69 87Z" fill="#DC281C" class="frag f17" style="--tx:-25.86px;--ty:33.87px;--rot:-239.44deg;--scale:1.03;--delay:-0.045s;--x:18px;--y:16px;--r:-26deg;--d:0.595s"/>
  </g>

  <circle class="flash" cx="8" cy="8" r="4.2"/>
  <circle class="particle p0" style="--x:-42px;--y:-30px;--d:0.08s" cx="8" cy="8" r="1.2"/><circle class="particle p1" style="--x:-30px;--y:-42px;--d:0.095s" cx="8" cy="8" r="0.9"/><circle class="particle p2" style="--x:-12px;--y:-46px;--d:0.11s" cx="8" cy="8" r="0.7"/><circle class="particle p3" style="--x:14px;--y:-44px;--d:0.125s" cx="8" cy="8" r="0.9"/><circle class="particle p4" style="--x:34px;--y:-36px;--d:0.14s" cx="8" cy="8" r="1.1"/><circle class="particle p5" style="--x:46px;--y:-16px;--d:0.155s" cx="8" cy="8" r="0.8"/><circle class="particle p6" style="--x:48px;--y:8px;--d:0.17s" cx="8" cy="8" r="1.1"/><circle class="particle p7" style="--x:34px;--y:30px;--d:0.185s" cx="8" cy="8" r="0.7"/><circle class="particle p8" style="--x:18px;--y:44px;--d:0.2s" cx="8" cy="8" r="0.9"/><circle class="particle p9" style="--x:-8px;--y:46px;--d:0.215s" cx="8" cy="8" r="1"/><circle class="particle p10" style="--x:-30px;--y:36px;--d:0.23s" cx="8" cy="8" r="0.8"/><circle class="particle p11" style="--x:-46px;--y:16px;--d:0.245s" cx="8" cy="8" r="1.1"/><circle class="particle p12" style="--x:-50px;--y:-4px;--d:0.26s" cx="8" cy="8" r="0.7"/><circle class="particle p13" style="--x:-26px;--y:-18px;--d:0.275s" cx="8" cy="8" r="0.75"/><circle class="particle p14" style="--x:25px;--y:-18px;--d:0.29s" cx="8" cy="8" r="0.75"/><circle class="particle p15" style="--x:-20px;--y:22px;--d:0.305s" cx="8" cy="8" r="0.7"/><circle class="particle p16" style="--x:22px;--y:22px;--d:0.32s" cx="8" cy="8" r="0.7"/><circle class="particle p17" style="--x:0px;--y:-36px;--d:0.335s" cx="8" cy="8" r="0.65"/><circle class="particle p18" style="--x:0px;--y:36px;--d:0.35s" cx="8" cy="8" r="0.65"/>

  </g>
</svg>
