<svg xmlns="http://www.w3.org/2000/svg" width="192" height="192" fill="none"><path fill="#000" stroke="#000" stroke-width="1.5" d="M112.782 114.706c.297 0 .573.139.751.37l.071.105 39.938 69.138a.95.95 0 0 1-.839 1.425l-17.473-.296a.95.95 0 0 1-.804-.469l-15.482-26.418H23.726a.951.951 0 0 1-.815-1.441l8.992-14.949.07-.102a.95.95 0 0 1 .744-.359h76.698l-14.813-25.594a.95.95 0 0 1 .823-1.426zm34.681-104.017a.95.95 0 0 1 1.652.014l8.482 15.246a.95.95 0 0 1-.005.933l-15.32 26.851 47.438 81.989a.949.949 0 0 1-.838 1.424l-17.471-.294a.95.95 0 0 1-.807-.475l-38.095-65.805-14.378 25.083a.95.95 0 0 1-1.647.001l-8.798-15.302a.95.95 0 0 1 .001-.949L122.87 53.16zm-58.741-3.76A.95.95 0 0 1 90.3 6.83l.074.113 8.48 15.246c.163.292.16.649-.007.938L60.719 89h30.938a.95.95 0 0 1 .83 1.415l-8.399 14.95a.95.95 0 0 1-.828.485H3.115a.95.95 0 0 1-.813-1.44l8.99-14.95a.95.95 0 0 1 .813-.46l29.162-.067z"/></svg>