<svg xmlns="http://www.w3.org/2000/svg" width="94" height="60" fill="none"><path fill="#fff" d="M80.125 20.443c.353 0 .684.087.974.241a1.98 1.98 0 0 1 1.069 1.753v5.661h5.615c1.127 0 2.04.892 2.04 1.993s-.913 1.992-2.04 1.992h-5.615v5.373c0 1.1-.913 1.992-2.04 1.992l-15.637-.006c-1.127 0-2.04-.89-2.04-1.992V30h.005c.05-1.056.941-1.902 2.038-1.902h13.593V24.43H62.395L54.949 37.92a2 2 0 0 1-1.117 1.42 2.1 2.1 0 0 1-.882.197c-.707 0-1.39-.36-1.762-.989a2 2 0 0 1-.19-.353l-5.882-11.27-5.949 11.017c-.256.59-.634 1.114-1.238 1.397-.276.13-.578.197-.883.198a2.06 2.06 0 0 1-1.765-.989 2 2 0 0 1-.189-.356L27.91 24.43H15.915v3.67h9.696c1.127 0 2.04.89 2.04 1.992 0 1.1-.913 1.992-2.04 1.992h-9.696v5.481c0 1.1-.913 1.992-2.04 1.992s-2.041-.89-2.041-1.992v-5.48H6.219c-1.128 0-2.04-.893-2.04-1.993s.912-1.993 2.04-1.993h5.615v-5.66c0-.756.431-1.417 1.069-1.754.29-.152.62-.24.974-.24h15.219c.331 0 .643.077.918.213.426.185.791.514 1.01.957l6.02 11.534 6.036-11.015c.304-.603.47-1.144 1.125-1.45A2.08 2.08 0 0 1 46.46 21c.373.282.543.475.799.96l5.69 11.188 6.386-11.567c.167-.285.395-.513.657-.682a2.07 2.07 0 0 1 1.302-.46h18.838M66.44 35.46h11.644v-3.373H66.44zm13.685-19.093H61.287a6.32 6.32 0 0 0-3.786 1.256 6.1 6.1 0 0 0-1.804 1.944l-.025.041-.022.041-2.606 4.718s-3.023-5.78-3.902-6.485a6.3 6.3 0 0 0-4.065-1.474c-.924 0-1.856.206-2.692.6-1.62.761-2.516 2.156-3.282 3.797l-1.968 3.563-2.385-4.574a6.15 6.15 0 0 0-2.957-2.818 6.35 6.35 0 0 0-2.708-.609h-15.22a6.36 6.36 0 0 0-2.967.734c-2.004 1.062-3.251 3.106-3.251 5.335v1.584h-1.44C2.79 24.022 0 26.742 0 30.091c0 3.348 2.79 6.068 6.216 6.068h1.44v1.405c0 3.346 2.789 6.07 6.215 6.07 3.427 0 6.216-2.724 6.216-6.07V36.16h5.52a6.3 6.3 0 0 0 3.26-.902l2.433 4.664q.185.399.426.774c1.122 1.802 3.149 2.916 5.312 2.916.924 0 1.857-.206 2.692-.6 1.517-.712 2.834-1.914 3.507-3.455l1.768-3.856 2.202 4.22q.18.4.423.77c1.122 1.801 3.148 2.918 5.314 2.918.924 0 1.857-.206 2.692-.6a6.15 6.15 0 0 0 3.096-3.267c.93 2.212 3.16 3.775 5.756 3.775l15.637.005c3.427 0 6.216-2.61 6.216-5.96v-1.405h1.439c3.427 0 6.216-2.723 6.216-6.068 0-3.346-2.79-6.069-6.216-6.069h-1.44v-1.583c0-2.226-1.243-4.273-3.25-5.335a6.35 6.35 0 0 0-2.969-.735z"/></svg>